<svg width="489" height="66" viewBox="0 0 489 66" fill="none" xmlns="http://www.w3.org/2000/svg">
<path d="M82.3 52.9V10.1H91.4V52.9H82.3Z" fill="#555555"/>
<path d="M128.6 52.9H119.7V33.8C119.8 31.9 119.4 30.1 118.4 28.5C117.5 27.3 115.9 26.6 114.4 26.7C111.9 26.7 110.1 27.5 109 29.2C107.9 30.9 107.3 33.6 107.3 37.5V52.9H98.4V20.2H105.2L106.4 24.4H106.9C107.9 22.8 109.3 21.6 111 20.8C112.9 20 114.9 19.5 117 19.6C120.8 19.6 123.7 20.6 125.7 22.7C127.7 24.8 128.7 27.7 128.7 31.6L128.6 52.9Z" fill="#555555"/>
<path d="M148.4 46.4C150.3 46.3 152.2 46 154 45.4V52C151.4 53.1 148.6 53.6 145.8 53.5C142.2 53.5 139.6 52.6 138 50.8C136.4 49 135.6 46.3 135.5 42.7V26.9H131.2V23.1L136.1 20.1L138.7 13.2H144.4V20.2H153.6V26.9H144.4V42.7C144.3 43.8 144.7 44.8 145.5 45.5C146.3 46.2 147.4 46.5 148.4 46.4Z" fill="#555555"/>
<path d="M172.3 53.5C167 53.5 162.9 52 159.9 49.1C156.9 46.2 155.5 42.1 155.5 36.7C155.5 31.2 156.9 27 159.6 24C162.3 21 166.1 19.5 171 19.5C175.6 19.5 179.2 20.8 181.8 23.5C184.4 26.2 185.7 29.8 185.7 34.4V38.7H164.6C164.6 40.9 165.4 43 166.8 44.6C168.4 46.1 170.5 46.9 172.7 46.7C174.6 46.7 176.5 46.5 178.3 46.1C180.2 45.6 182 45 183.8 44.1V51C182.2 51.8 180.5 52.4 178.8 52.7C176.6 53.3 174.4 53.5 172.3 53.5ZM171 25.9C169.3 25.8 167.7 26.5 166.6 27.7C165.4 29.1 164.8 30.9 164.7 32.8H177.2C177.3 30.9 176.7 29.1 175.5 27.7C174.3 26.5 172.7 25.9 171 25.9Z" fill="#555555"/>
<path d="M208 19.6C209 19.6 210 19.7 211 19.9L210.3 28.3C209.4 28.1 208.5 28 207.7 28C205.3 27.9 202.9 28.6 201 30.2C199.3 31.8 198.5 34.1 198.6 36.4V53.1H189.7V20.2H196.5L197.8 25.7H198.2C199.2 23.9 200.6 22.4 202.3 21.3C204 20.2 206 19.6 208 19.6Z" fill="#555555"/>
<path d="M224.4 52.9L212 20.2H221.4L227.7 38.9C228.4 41.1 228.8 43.3 229 45.6H229.2C229.4 43.3 229.8 41.1 230.5 38.9L236.8 20.2H246.1L233.6 53H224.4V52.9Z" fill="#555555"/>
<path d="M250.1 11.7C250.1 8.80002 251.7 7.30002 255 7.30002C258.2 7.30002 259.9 8.80002 259.9 11.7C260 12.9 259.5 14.1 258.7 14.9C257.7 15.7 256.4 16.2 255.1 16.1C251.7 16.1 250.1 14.7 250.1 11.7ZM259.4 53H250.5V20.2H259.4V53Z" fill="#555555"/>
<path d="M280.4 53.5C275.1 53.5 271 52 268 49.1C265 46.2 263.5 42.1 263.5 36.7C263.5 31.2 264.9 27 267.6 24C270.3 21 274.1 19.5 279 19.5C283.6 19.5 287.2 20.8 289.8 23.5C292.4 26.2 293.7 29.8 293.7 34.4V38.7H272.5C272.5 40.9 273.3 43 274.7 44.6C276.3 46.1 278.4 46.9 280.6 46.7C282.5 46.7 284.4 46.5 286.2 46.1C288.1 45.6 289.9 45 291.7 44.1V51C290.1 51.8 288.4 52.4 286.7 52.7C284.8 53.3 282.6 53.5 280.4 53.5ZM279.2 25.9C277.5 25.8 275.9 26.5 274.7 27.7C273.5 29.1 272.9 30.9 272.8 32.8H285.3C285.4 30.9 284.8 29.1 283.6 27.7C282.5 26.5 280.9 25.9 279.2 25.9Z" fill="#555555"/>
<path d="M324.8 52.9L322.3 41.4L318.9 27H318.7L312.7 52.9H303.1L293.8 20.2H302.7L306.5 34.7C307.1 37.3 307.7 40.9 308.4 45.5H308.6C308.8 43.1 309.1 40.8 309.6 38.4L310.1 35.9L314.1 20.2H323.9L327.7 35.9C327.8 36.3 327.9 37 328.1 37.8C328.3 38.6 328.4 39.5 328.6 40.5C328.8 41.4 328.9 42.4 329 43.3C329.1 44.2 329.2 44.9 329.2 45.5H329.4C329.6 44.1 329.9 42.2 330.3 39.7C330.8 37.2 331.1 35.6 331.3 34.7L335.2 20.2H344L334.6 53L324.8 52.9Z" fill="#555555"/>
<path d="M377.4 17.1C374.3 17 371.3 18.4 369.5 21C367.6 23.6 366.7 27.1 366.7 31.7C366.7 41.3 370.3 46 377.5 46C381.2 45.9 384.9 45.1 388.4 43.8V51.4C384.7 52.9 380.7 53.7 376.6 53.6C370.4 53.6 365.6 51.7 362.3 47.9C359 44.1 357.3 38.7 357.3 31.6C357.2 27.6 358 23.6 359.7 19.9C361.2 16.7 363.6 14 366.7 12.2C370 10.3 373.7 9.40002 377.4 9.50002C381.8 9.50002 386 10.6 389.9 12.5L387 19.9C385.4 19.1 383.8 18.5 382.2 17.9C380.6 17.3 379 17.1 377.4 17.1Z" fill="#555555"/>
<path d="M414.3 52.9L412.6 48.5H412.4C411.2 50.2 409.6 51.5 407.8 52.4C405.8 53.2 403.7 53.6 401.6 53.5C398.9 53.7 396.2 52.7 394.2 50.8C392.4 49 391.5 46.4 391.5 43.1C391.5 39.6 392.7 37.1 395.1 35.4C397.5 33.7 401.2 32.8 406.1 32.7L411.8 32.5V31.1C411.8 27.8 410.1 26.1 406.7 26.1C403.5 26.2 400.3 27.1 397.5 28.5L394.5 22.5C398.4 20.5 402.7 19.5 407 19.5C411.4 19.5 414.8 20.5 417.1 22.4C419.4 24.3 420.6 27.2 420.6 31.1V53H414.3V52.9ZM411.7 37.7L408.2 37.8C406.2 37.7 404.2 38.2 402.4 39.2C401.1 40.1 400.4 41.6 400.5 43.1C400.5 45.6 401.9 46.9 404.8 46.9C406.6 47 408.4 46.4 409.8 45.1C411.1 43.9 411.7 42.1 411.7 40.3V37.7Z" fill="#555555"/>
<path d="M435.2 35.1L439.1 30.1L448.3 20.1H458.4L445.4 34.3L459.2 52.8H448.9L439.5 39.5L435.7 42.6V52.8H426.8V7.40002H435.7V27.8L435.2 35.2V35.1Z" fill="#555555"/>
<path d="M475.4 53.5C470.1 53.5 466 52 463 49.1C460 46.2 458.5 42.1 458.5 36.7C458.5 31.2 459.9 27 462.6 24C465.3 21 469.2 19.5 474 19.5C478.6 19.5 482.2 20.8 484.8 23.5C487.4 26.2 488.7 29.8 488.7 34.4V38.7H467.5C467.5 40.9 468.3 43 469.7 44.6C471.3 46.1 473.4 46.9 475.6 46.7C477.5 46.7 479.4 46.5 481.2 46.1C483.1 45.6 484.9 45 486.7 44.1V51C485.1 51.8 483.4 52.4 481.7 52.7C479.8 53.3 477.6 53.5 475.4 53.5ZM474.2 25.9C472.5 25.8 470.9 26.5 469.7 27.7C468.5 29.1 467.9 30.9 467.8 32.8H480.3C480.4 30.9 479.8 29.1 478.6 27.7C477.5 26.5 475.9 25.9 474.2 25.9Z" fill="#555555"/>
<path d="M44.4 0.700012C42.3 0.900012 40.2 1.10001 38.2 1.30001C25.3 2.80001 14.2 5.80001 5.8 9.70001C3.9 10.6 2 11.6 0.199997 12.7V50.3L61.3 65.2V27.1L44.4 0.700012ZM55.7 58.2L5.8 46V34.7L55.7 47.1V58.2ZM55.7 41.4L5.8 29V17.8L55.7 30.2V41.4Z" fill="#5BC0DE"/>
</svg>
